<svg xmlns="http://www.w3.org/2000/svg" viewBox="0 0 61.08 56.78"><defs><style>.cls-1{fill:#fff;}</style></defs><title>Asset 3ryder</title><g id="Layer_2" data-name="Layer 2"><g id="Layer_1-2" data-name="Layer 1"><path class="cls-1" d="M39,15.91s-2.13.78-5.49-.72v4.32l2.12,1.25Z"/><polygon class="cls-1" points="23.91 16.78 19.75 15 19.75 25.88 23.91 27.71 23.91 16.78"/><path class="cls-1" d="M38.68,27.89V23l-2.43-1.59-3.8,5.47A8.08,8.08,0,0,1,38.68,27.89Z"/><polygon class="cls-1" points="48.2 25.88 52.36 27.71 52.36 16.78 48.2 15 48.2 25.88"/><path class="cls-1" d="M60.23,4.84h0A4.15,4.15,0,0,0,56.37,1L52.27.73Q41.43,0,30.54,0T8.81.73L4.71,1A4.16,4.16,0,0,0,.85,4.84a327.62,327.62,0,0,0,0,47.1h0a4.16,4.16,0,0,0,3.86,3.84l4.1.27q10.86.72,21.73.73t21.73-.73l4.1-.27a4.15,4.15,0,0,0,3.86-3.84h0A324.76,324.76,0,0,0,60.23,4.84ZM30.12,21.43v-6.5a12,12,0,0,0,4.39-3.23s4.57,2,5.91,1.74A1.43,1.43,0,0,0,41.17,11c-.81-.66-.54-1-.34-1.39s1.29-.92,1.75.71A3,3,0,0,1,42.15,13l-3.74,5.38,3.52,2.2v7.28a19.87,19.87,0,0,0-5,2.88c-4.39-2.49-7.34-.15-7.34-.15l-.53-.38,4.56-6.55Zm-14-6.63a10.85,10.85,0,0,0,5.34-3.06,16.73,16.73,0,0,0,6.17,2.84V27.64l-5.72,3-3-1.56a18.83,18.83,0,0,0-3.78-1.46A5.47,5.47,0,0,0,16.1,24.4Zm-8-7.38a5.19,5.19,0,0,1,4.16-2.24,4.29,4.29,0,0,0-2,4V26l2,1.55L13,27l.57.65L10,30.85A12.59,12.59,0,0,0,5.2,27.63a3.21,3.21,0,0,0,1.48-2.58V8.73A3.73,3.73,0,0,0,5.05,5.86,3.89,3.89,0,0,1,8.08,7.42ZM23.36,36.47c-1.29,0-1.94.36-1.94,1.06V51.6H16.14L9.32,38.79v9.88c0,.7.65,1,1.94,1V51.6H5.05V49.72c1.29,0,1.94-.35,1.94-1V37.53c0-.7-.65-1.06-1.94-1.06V34.6h7.08l7,13.13V37.53c0-.7-.65-1.06-1.94-1.06V34.6h6.19Zm16.21.67-4.51,6.94v4.59c0,.7.72,1,2.18,1V51.6H28.45V49.72c1.45,0,2.18-.35,2.18-1V44.08l-4.34-6.92a1.25,1.25,0,0,0-.66-.54,3,3,0,0,0-1-.15V34.6h8.83v1.87H32.18c-.44,0-.66.16-.66.46a.75.75,0,0,0,.11.37l2.64,4.78,2.83-4.74a.62.62,0,0,0,.09-.32c0-.36-.26-.55-.78-.55h-.66V34.6h5.58v1.9a3.14,3.14,0,0,0-1.12.17A1.13,1.13,0,0,0,39.57,37.14ZM55.23,48.4a6.78,6.78,0,0,1-1.38,1.83,6.29,6.29,0,0,1-2.09,1.27,8.39,8.39,0,0,1-2.94.47,9.83,9.83,0,0,1-3.24-.53,7.12,7.12,0,0,1-2.64-1.6,7.64,7.64,0,0,1-1.77-2.71,10.24,10.24,0,0,1-.66-3.85,11.31,11.31,0,0,1,.65-4,8,8,0,0,1,1.73-2.81,7.14,7.14,0,0,1,2.52-1.66,8.47,8.47,0,0,1,3-.55,9,9,0,0,1,2.86.42,5.18,5.18,0,0,1,1.91,1.08l.5-1.15h2.14v5.58l-2.2.18a5.18,5.18,0,0,0-1.32-2.78,3.64,3.64,0,0,0-2.69-1,3.77,3.77,0,0,0-3.5,1.7,9.35,9.35,0,0,0-1,4.82,10.81,10.81,0,0,0,.32,2.79,5.55,5.55,0,0,0,.87,1.91,3.43,3.43,0,0,0,1.31,1.1,3.64,3.64,0,0,0,1.6.36,5.09,5.09,0,0,0,3.17-.87,5.27,5.27,0,0,0,1.69-2.7l2,.52A9.64,9.64,0,0,1,55.23,48.4ZM56,27.64l-5.72,3-3-1.56a18.83,18.83,0,0,0-3.78-1.46,5.47,5.47,0,0,0,1-3.24l0-9.6a10.79,10.79,0,0,0,5.34-3.06A16.8,16.8,0,0,0,56,14.58Z"/></g></g></svg>