<svg xmlns="http://www.w3.org/2000/svg" viewBox="0 0 66.11 56.78"><defs><style>.cls-1{fill:#fff;}</style></defs><title>Asset 4ryder</title><g id="Layer_2" data-name="Layer 2"><g id="Layer_1-2" data-name="Layer 1"><path class="cls-1" d="M35,17a1,1,0,0,0-.16-1.33,3.36,3.36,0,0,0-2-.69,1,1,0,0,0-.93.62c-.89,2.27-4.19,10.51-5.73,11.28s.47-6.71,2.85-9.92a1,1,0,0,0-.16-1.3,3.63,3.63,0,0,0-1.83-.8,1,1,0,0,0-1,.51,38.21,38.21,0,0,0-4.15,12.74c-.86,7.2,3.59,5.88,5,3.3,0,0-1.21,4.93-3.41,4.79s-5.65-5.9-7-12.45c0,0,7.57-.54,8.33-9.65,0,0,.67-5.21-2.06-8.8C23.8,4.15,25.32,3,26.59,3.35c2.33.61,1.5,3.73,1.5,3.73a3.72,3.72,0,0,0,2.55-4.33A3,3,0,0,0,27.43,0c-2.58.22-5.19,2.73-6.18,3.79a9.75,9.75,0,0,0-5.84-1.87C4,1.61.28,16.23,4.33,21.21c3.78,4.65,7.35-1.7,7.45-3.94,0,0-3.94,0-2.66-6.39S16.57,3.69,19,6.4a94.86,94.86,0,0,0-6.26,11.14c-2,4.65-7.7,14.84-10.29,4.94,0,0-3.13,1.62-2.3,8.59s9.34,9.17,14-7c0,0,2,17.83,7.63,20s7.37-10.37,7.83-12.34C30.26,28.87,33,19.65,35,17ZM20.39,9.21s1.18,9.33-5.11,11.54C15.28,20.75,19.36,11.08,20.39,9.21Z"/><path class="cls-1" d="M32.16,30.67c.78,5.85,4.71,2.86,5.4-1.76,0,0-.2,4.81,2,5s4.17-5,4.17-5,.55,5.18,5,5c3.77-.12,7.48-10.49,8.66-14a.9.9,0,0,1,1.36-.47,1.21,1.21,0,0,1,.4,1.58c-1.08,2-3.35,6.92-2.48,10.53,1.12,4.68,5.67,2.25,8.85-10.54l-.72-.67s-2.3,5.38-3.29,6.37-1.44-.4-.31-2.91,1-7.09-2.36-8l-.1-1.48S57,12.64,56.85,12.93s-.34,6-3.16,11.41-6.92,3.16-6.35.05c0,0,2.22,3.19,5.33-.77s1-10.45-3.54-7.66c-4.83,3-3.82,8.92-7.69,11.36,0,0-.52-2.93,1.75-8,2.16-4.88,3.92-8.56,5.91-10a1,1,0,0,0,.38-.69c.07-.95,0-2.95-2.38-2.86a1,1,0,0,0-.74.4A45.7,45.7,0,0,0,41.1,16.71s-.1-2.34-2.85-1.33S31.37,24.82,32.16,30.67Zm15.76-9.39a5.67,5.67,0,0,1,2.28-2.46.88.88,0,0,1,1.23.71,3.14,3.14,0,0,1-.67,2.3,1.75,1.75,0,0,1-2.61.58A.88.88,0,0,1,47.92,21.28ZM39.42,19a.47.47,0,0,1,.64.53c-.41,1.64-1.52,5.35-3.53,7.16a.46.46,0,0,1-.76-.36C35.84,24.5,36.36,20.39,39.42,19Z"/><path class="cls-1" d="M66.09,44.57c.09-.55-.26-2.06-1.57-1.64-1.16.37-1.77,4.14-3.11,4.5.08-.39.15-.79.21-1.22.71-5.07-3.93-4-4.41-.75-.42,2.87-2.46,5.63-2.62,3.61,0,0-.14-.63.92-2.79h0c.59-1.16,1.06-2.15,1.28-2.62a.37.37,0,0,0-.16-.5,2.53,2.53,0,0,0-1.38-.27.38.38,0,0,0-.33.25,25,25,0,0,1-3.16,6.25c-1.55,1.88,1.09-5.45,1.85-6.8A14.83,14.83,0,0,1,56,39.14a.38.38,0,0,0,0-.53,2.17,2.17,0,0,0-1.15-.81.74.74,0,0,0-.81.35,28.05,28.05,0,0,0-2.59,5.37S49.53,41,47,46.46a12.79,12.79,0,0,0-.47,1.59,3.49,3.49,0,0,1-1.12,1.36c-1.06.53-.35-1.92.28-3.23h0c.55-1.1,1-2,1.18-2.47a.37.37,0,0,0-.16-.48A1.66,1.66,0,0,0,45.38,43a.37.37,0,0,0-.23.23c-.31.78-1.86,4.72-3.1,5.92a.26.26,0,0,1-.43-.17,4.69,4.69,0,0,1,.55-2.34h0c.49-.85,1-1.77,1.52-2.74a.42.42,0,0,0,0-.31,1.27,1.27,0,0,0-1.35-.8A.41.41,0,0,0,42,43c-.39,1-2.06,5.08-3.29,6.19a.19.19,0,0,1-.31-.16,18.68,18.68,0,0,1,2-6.59h1.48l.84-1.58H41.41A16.85,16.85,0,0,1,42.89,39a.38.38,0,0,0,0-.55l-1.08-.89a.38.38,0,0,0-.55.07,33.36,33.36,0,0,0-2,3.27H37.62C39,38.28,39.49,34.35,37,34c-3.54-.47-3,7.33-3,7.33a2,2,0,0,1-2.72-1.57,3.08,3.08,0,0,1,1.36-3.48,2,2,0,0,0-3.25,0c-1.59,1.72-1.49,9.38,4.38,7.5v4.66s-.11,3.25-1.71,3.13-1.89-3.31.12-3.72c0,0,.72-2.88-1.79-3.25-2.28-.34-5.12,4.57-3.15,9.24a4.75,4.75,0,0,0,2.32,2.51c3.71,1.71,7.79-1.8,6.24-13.37a4.1,4.1,0,0,0,1.48-1.44v.9h1.26a20.51,20.51,0,0,0-2.09,7.78c-.1,3.79,1,3.54,2.91,1,.15.8.53,1.9,1.61,1.9.51,0,1.22-.79,2-1.91.15.79.5,1.82,1.37,1.91.49,0,1.21-.9,2-2.17.1.78.37,2,1,2.17s1.58-1.2,2.18-2.22c0,1,.28,2.18,1.31,2.22.52,0,1.27-.84,2.08-2,.11.84.41,2,1.32,2.06,1.42.05,2.35-3.3,2.35-3.3s-.07,3.16,1.17,3.28c.91.08,2.21-.86,3.14-3.36h.49a4.41,4.41,0,0,0,1.22,3.38c1.42,1.23,3.32-.62,3.59-2.43s-1.3-4.76-1-5.26S66,45.12,66.09,44.57ZM35.57,40.25s-.32-5.12,1.16-5S37.78,39,35.57,40.25ZM48.26,47.7a4.68,4.68,0,0,1,1.88-2.8.34.34,0,0,1,.51.28,4.92,4.92,0,0,1-1.22,3.43C49,49.15,47.48,50.31,48.26,47.7ZM58,49.65c.07-.21-.72-.32-.39-.58a.56.56,0,0,1,.17-.09.62.62,0,0,1,.74.47C58.79,50.52,58,49.79,58,49.65ZM59.51,48c-.32.13-1-.41-.32-1.24a.92.92,0,0,0-.45-1.47.31.31,0,0,1-.15-.45,1,1,0,0,1,1.57-.42C60.92,45,59.84,47.9,59.51,48Zm4.35,1.46c-1.09.64-1.47-1.15-.06-1.56L63,47.18s.7-1,.9-1.4C63.86,45.78,64.94,48.86,63.86,49.49Z"/><path class="cls-1" d="M57.46,38.24a3.83,3.83,0,0,0-1,3.92.42.42,0,0,0,.53.28.44.44,0,0,0,.28-.31,6.34,6.34,0,0,1,1.51-2.62.76.76,0,0,0,0-1.06l-.2-.2A.77.77,0,0,0,57.46,38.24Z"/></g></g></svg>